<svg width="508.4" height="164.252" viewBox="0 0 390 126" class="looka-1j8o68f"><rect xmlns="http://www.w3.org/2000/svg" width="390" height="126" rx="10" ry="10" fill="#355c7d"/><path d="m20 21.141 3.423-.342 35.263.342 1.255 14.721L44.08 38.26l2.967 66.759-17.232-.114.457-64.363-9.016-.798zm53.293 46.104 11.412-.57-.343-15.863-2.852-11.07-7.076-.57zm3.081-46.674h7.304l14.95 1.027 3.08 41.425 1.142 41.31-3.424.229-12.895.57h-1.37l-1.027-25.676-10.727-.685-2.853 26.247-11.183.342 3.651-42.68 3.31-24.421 2.396-17.118zm66.417 1.826 2.967 4.907v13.922l-.342 7.075-15.292-.798v-10.5l-7.532.115-1.255 3.195 1.255 15.52 11.754.685 11.412 1.37.342 14.492v10.27l-1.483 17.917-10.27 5.022-15.064-.685-6.847-2.739-3.424-2.625-1.598-8.33.57-14.15.572-4.566 3.88.229 8.9 1.027v12.21l10.728 1.256.342-20.542-22.71-1.255-.912-25.106-.228-16.433 3.765-2.739c2.625-.114 4.907-.342 7.076-.57 3.651-.343 7.303-.57 8.102-.57.57 0 2.625.113 4.565.227l3.652.229zm59.684 82.507-19.172.342-6.733-38.115-6.163-.114v12.895l1.37 24.421-1.37.57-14.72-.57-1.256-5.477-.457-40.512 2.283-37.545 15.178.57-1.028 20.656v8.673h5.022l13.808-29.214h9.13l2.054.913-15.977 32.637zm24.193-84.333v69.612l8.558 1.597 8.331.229-.799 12.895h-6.504l-21.683.799-7.19-.229-1.483-75.774.685-8.216zm40.854-.457h19.172l-14.38 47.816v5.82l-.912 31.496-22.139.57 4.108-34.691-3.652-5.592-13.922-44.163 17.574-1.256 7.76 42.909 3.196-8.788zm55.233 2.283 2.967 4.907v13.922l-.342 7.075-15.292-.798v-10.5l-7.532.115-1.255 3.195 1.255 15.52 11.754.685 11.412 1.37.342 14.492v10.27l-1.483 17.917-10.27 5.022-15.064-.685-6.847-2.739-3.424-2.625-1.598-8.33.571-14.15.57-4.566 3.88.229 8.902 1.027v12.21l10.727 1.256.342-20.542-22.71-1.255-.912-25.106-.228-16.433 3.765-2.739c2.625-.114 4.908-.342 7.076-.57 3.652-.343 7.303-.57 8.102-.57.57 0 2.625.113 4.565.227l3.652.229zm8.559-.913 23.166-.685 12.096.456 3.424.229-1.255 16.547-9.13-.57.685 67.557-20.2.228 1.028-40.17.456-27.844-11.069-1.027z" fill="#fff"/></svg>